<?xml version="1.0" encoding="UTF-8" standalone="no"?>
<svg width="134px" height="144px" viewBox="0 0 134 144" version="1.1" xmlns="http://www.w3.org/2000/svg" xmlns:xlink="http://www.w3.org/1999/xlink">
    <!-- Generator: Sketch 41.1 (35376) - http://www.bohemiancoding.com/sketch -->
    <title>logo agrot</title>
    <desc>Created with Sketch.</desc>
    <defs>
        <polygon id="path-1" points="0.02144 143.978507 0.02144 0.300895522 113.58912 0.300895522 113.58912 143.978507"></polygon>
    </defs>
    <g id="Page-1" stroke="none" stroke-width="1" fill="none" fill-rule="evenodd">
        <g id="Index" transform="translate(-121.000000, -73.000000)">
            <g id="logo-agrot" transform="translate(121.000000, 73.000000)">
                <g id="Group-5">
                    <mask id="mask-2" fill="white">
                        <use xlink:href="#path-1"></use>
                    </mask>
                    <g id="Clip-2"></g>
                    <path d="M109.683109,86.9910448 C108.626832,86.9910448 107.767445,86.1299104 107.767445,85.0710448 C107.767445,84.0125373 108.626832,83.1510448 109.683109,83.1510448 C110.739387,83.1510448 111.598416,84.0125373 111.598416,85.0710448 C111.598416,86.1299104 110.739387,86.9910448 109.683109,86.9910448 Z M21.58472,87.9965373 C20.5284427,87.9965373 19.6694133,87.135403 19.6694133,86.0765373 C19.6694133,85.0176716 20.5284427,84.1565373 21.58472,84.1565373 C22.6409973,84.1565373 23.500384,85.0176716 23.500384,86.0765373 C23.500384,87.135403 22.6409973,87.9965373 21.58472,87.9965373 Z M57.9419573,28.6312836 C58.9982347,28.6312836 59.857264,29.4927761 59.857264,30.5516418 C59.857264,31.6105075 58.9982347,32.4716418 57.9419573,32.4716418 C56.88568,32.4716418 56.0262933,31.6105075 56.0262933,30.5516418 C56.0262933,29.4927761 56.88568,28.6312836 57.9419573,28.6312836 Z M76.25136,48.255403 C76.25136,47.1965373 77.1103893,46.3350448 78.1666667,46.3350448 C79.222944,46.3350448 80.0823307,47.1965373 80.0823307,48.255403 C80.0823307,49.3142687 79.222944,50.1757612 78.1666667,50.1757612 C77.1103893,50.1757612 76.25136,49.3142687 76.25136,48.255403 Z M109.683109,80.9770746 C108.315952,80.9770746 107.111381,81.5014925 106.413152,82.5761194 L90.0422827,82.5761194 C80.11592,82.5761194 71.682496,74.3541493 70.2531627,63.0573134 L70.2531627,53.1632239 C70.9678293,50.0736716 72.1920533,45.8930149 74.5418773,42.0157612 C77.6045813,36.9625075 81.6864,33.7744478 87.1132213,32.2699701 C93.2547093,30.5670448 99.7481707,32.1933134 104.369205,36.5147463 C102.620773,42.6028657 97.8560907,47.3541493 91.7185333,49.056 L91.579888,49.0928955 L91.4498187,49.1469851 C91.4065813,49.1652537 87.2450773,50.8638806 82.07232,48.3252537 C82.0730347,48.3019701 82.073392,48.2790448 82.073392,48.255403 C82.073392,46.0964776 80.3210293,44.3398209 78.167024,44.3398209 C76.013376,44.3398209 74.260656,46.0964776 74.260656,48.255403 C74.260656,50.4146866 76.0130187,52.1709851 78.1666667,52.1709851 C78.6865867,52.1709851 79.1825653,52.0678209 79.6363787,51.8822687 C86.2449013,55.3977313 91.932576,53.5332537 92.9513333,53.1474627 C100.932373,50.8921791 106.998464,44.4540896 108.795493,36.3209552 L109.040267,35.2133731 L108.262352,34.3891343 C102.52608,28.3110448 93.9690187,25.9196418 85.9311627,28.1484179 C79.4980907,29.9322985 74.443968,33.8507463 70.840976,39.7952239 C70.584768,40.2179104 70.427184,40.6441791 70.1427467,41.0715224 C70.1427467,41.0715224 69.4530933,28.657791 67.8182933,23.2638806 C65.2529973,14.7986866 60.2128107,8.33014925 52.8546027,4.09791045 C43.6843573,-1.17671642 32.420496,-0.941373134 23.46608,4.7118806 L22.5062827,5.31653731 L22.468048,6.45062687 C22.119648,17.0145672 27.553616,26.8423881 36.6584693,32.1281194 C37.4542507,32.6955224 41.6028907,35.4197015 47.8880267,35.4189851 C50.2975253,35.4189851 53.022192,35.017791 55.9909173,33.9417313 C56.5655093,34.2752239 57.2315787,34.4672239 57.9419573,34.4672239 C60.0956053,34.4672239 61.847968,32.7109254 61.847968,30.5516418 C61.847968,28.3927164 60.0956053,26.6360597 57.9419573,26.6360597 C55.945536,26.6360597 54.2953707,28.145194 54.0645333,30.0848955 C50.4186613,31.3153433 46.8406827,31.4722388 43.4220747,30.5444776 C40.716704,29.8101493 39.1179947,28.6355821 39.11192,28.6312836 L39.0018613,28.5481791 L38.8817973,28.481194 C31.4210347,24.190209 26.835376,16.3246567 26.7192427,7.74841791 C34.1632107,3.52155224 43.257344,3.52871642 50.7231093,7.82256716 C57.197632,11.5465075 61.4488267,16.9751642 63.7193227,24.4674627 C65.6657173,30.889791 65.8772587,41.5364776 65.8772587,41.5364776 C65.8772587,41.5364776 65.5395787,60.9983284 65.6868,62.2728358 C63.6925227,74.4834627 54.358976,83.6507463 43.1787307,83.6507463 L24.8546773,83.6507463 C24.156448,82.5761194 22.9518773,82.0169552 21.58472,82.0169552 C19.431072,82.0169552 17.6787093,83.8456119 17.6787093,86.0045373 C17.6787093,88.1638209 19.431072,89.823403 21.58472,89.823403 C22.9518773,89.823403 24.156448,89.0238806 24.8546773,87.9492537 L43.1787307,87.9492537 C50.4876267,87.9492537 57.3430667,84.8600597 62.482592,79.0105075 C64.6816213,76.5073433 66.451136,73.7161791 67.751472,70.6194627 C68.9267413,73.5546269 70.5376,76.1283582 72.5447413,78.497194 C77.1965067,83.9860299 83.410176,86.8746269 90.0422827,86.8746269 L106.413152,86.8746269 C107.111381,87.9492537 108.315952,88.8193433 109.683109,88.8193433 C111.836757,88.8193433 113.58912,87.0573134 113.58912,84.8983881 C113.58912,82.7391045 111.836757,80.9770746 109.683109,80.9770746 L109.683109,80.9770746 Z" id="Fill-1" fill="#7ED321" mask="url(#mask-2)"></path>
                    <path d="M22.4526827,120.001791 L18.3705067,109.816836 L14.2883307,120.001791 L22.4526827,120.001791 Z M25.083728,126.640836 L11.6572853,126.640836 L9.16274133,132.824597 L0,132.824597 L14.0160427,100.995582 L22.8611147,100.995582 L36.9225387,132.824597 L27.578272,132.824597 L25.083728,126.640836 L25.083728,126.640836 Z" id="Fill-3" fill="#0B379C" mask="url(#mask-2)"></path>
                    <path d="M49.7232907,118.855881 C52.343616,118.855881 53.654672,117.941731 53.654672,116.112 C53.654672,115.21397 53.306272,114.515463 52.6098293,114.016478 C51.9130293,113.517851 50.950016,113.268537 49.7232907,113.268537 C48.495136,113.268537 47.541056,113.517851 46.8617653,114.016478 C46.1810453,114.515463 45.8412213,115.21397 45.8412213,116.112 C45.8412213,117.941731 47.1351253,118.855881 49.7232907,118.855881 Z M54.8989067,135.718209 C54.8989067,135.285493 54.7745547,134.936597 54.5254933,134.670806 C54.2767893,134.404299 53.836912,134.196537 53.2069333,134.046806 C52.57624,133.897075 52.0534613,133.797493 51.639312,133.747701 C51.2240907,133.69791 50.5358667,133.639522 49.5739253,133.572896 C47.782256,133.439642 46.8031627,133.356537 46.6377173,133.323582 C45.310224,133.988418 44.6470133,134.786866 44.6470133,135.718209 C44.6470133,137.281433 46.355424,138.063045 49.77296,138.063045 C53.1897813,138.063045 54.8989067,137.281433 54.8989067,135.718209 Z M64.1556267,108.728597 C63.0932747,110.058985 61.7829333,111.122866 60.223888,111.921313 C60.9535627,113.185433 61.3191147,114.582806 61.3191147,116.112 C61.3191147,118.739821 60.2814187,120.826388 58.208528,122.373134 C56.1345653,123.919522 53.2566027,124.692896 49.5739253,124.692896 C48.1803253,124.692896 46.952528,124.576836 45.891248,124.343642 C45.6922133,124.543164 45.5925173,124.826149 45.5925173,125.191881 C45.5925173,126.08991 46.6377173,126.638687 48.72776,126.837851 C53.737216,127.336836 57.0886453,127.952955 58.780976,128.68406 C61.600336,129.881552 63.0107307,132.060179 63.0107307,135.219582 C63.0107307,138.145791 61.7829333,140.340896 59.3280533,141.804896 C56.8724587,143.268179 53.521744,144 49.2751947,144 C45.6250347,144 42.631296,143.376 40.292192,142.129075 C37.953088,140.881791 36.783536,139.027343 36.783536,136.566448 C36.783536,134.038567 38.044208,132.243224 40.5659093,131.178627 C39.2387733,130.114388 38.5755627,128.751045 38.5755627,127.087522 C38.5755627,125.191881 39.4542453,123.612537 41.21304,122.34806 C39.1887467,120.851463 38.177136,118.80609 38.177136,116.211582 C38.177136,113.484896 39.2387733,111.306269 41.3624053,109.67606 C43.4853227,108.046925 46.3053973,107.231642 49.8226293,107.231642 C52.0784747,107.231642 54.0530987,107.580896 55.745072,108.279403 C57.270528,107.514627 58.797056,106.300657 60.323584,104.637493 L64.1556267,108.728597 L64.1556267,108.728597 Z" id="Fill-4" fill="#0B379C" mask="url(#mask-2)"></path>
                </g>
                <path d="M83.2382987,107.770746 L83.2382987,115.54603 C82.4675307,115.455045 81.9229547,115.409552 81.2879733,115.409552 C77.79504,115.409552 75.3912587,117.182687 75.3912587,121.502687 L75.3912587,132.824597 L66.7730933,132.824597 L66.7730933,108.179821 L74.9828267,108.179821 L74.9828267,111.135403 C76.7523413,108.907343 79.609936,107.770746 83.2382987,107.770746" id="Fill-6" fill="#0B379C"></path>
                <path d="M104.057968,120.456716 C104.057968,116.728478 101.835355,114.636537 98.8869973,114.636537 C95.9840213,114.636537 93.7160267,116.728478 93.7160267,120.456716 C93.7160267,124.230806 95.9840213,126.367881 98.8869973,126.367881 C101.835355,126.367881 104.057968,124.230806 104.057968,120.456716 Z M85.0070987,120.456716 C85.0070987,113.045373 90.858432,107.770746 98.8869973,107.770746 C107.006325,107.770746 112.766896,113.045373 112.766896,120.456716 C112.766896,127.91391 107.006325,133.23403 98.8869973,133.23403 C90.858432,133.23403 85.0070987,127.91391 85.0070987,120.456716 L85.0070987,120.456716 Z" id="Fill-7" fill="#0B379C"></path>
                <path d="M133.720923,131.824119 C132.224411,132.779104 130.00144,133.23403 127.733445,133.23403 C121.428656,133.23403 117.754912,130.14197 117.754912,123.821731 L117.754912,115.54603 L114.171216,115.54603 L114.171216,109.089313 L117.754912,109.089313 L117.754912,102.677731 L126.373077,102.677731 L126.373077,109.089313 L131.997504,109.089313 L131.997504,115.54603 L126.373077,115.54603 L126.373077,123.730746 C126.373077,125.549731 127.416133,126.549851 128.958384,126.549851 C129.911035,126.549851 130.863328,126.276896 131.589072,125.776836 L133.720923,131.824119" id="Fill-8" fill="#0B379C"></path>
            </g>
        </g>
    </g>
</svg>